<svg xmlns="http://www.w3.org/2000/svg" xmlns:xlink="http://www.w3.org/1999/xlink" contentStyleType="text/css" data-diagram-type="DESCRIPTION" height="786px" preserveAspectRatio="none" style="width:725px;height:786px;background:#FFFFFF;" version="1.1" viewBox="0 0 725 786" width="725px" zoomAndPan="magnify"><defs/><g><!--entity stud--><g class="entity" data-entity="stud" data-source-line="3" data-uid="ent0002" id="entity_stud"><ellipse cx="77.7571" cy="264.23" fill="#F1F1F1" rx="8" ry="8" style="stroke:#181818;stroke-width:0.5;"/><path d="M77.7571,272.23 L77.7571,299.23 M64.7571,280.23 L90.7571,280.23 M77.7571,299.23 L64.7571,314.23 M77.7571,299.23 L90.7571,314.23" fill="none" style="stroke:#181818;stroke-width:0.5;"/><text fill="#000000" font-family="sans-serif" font-size="14" lengthAdjust="spacing" textLength="128.4541" x="13.53" y="328.7251">Studente Erasmus</text></g><!--entity UO--><g class="entity" data-entity="UO" data-source-line="4" data-uid="ent0003" id="entity_UO"><ellipse cx="77.76" cy="116.23" fill="#F1F1F1" rx="8" ry="8" style="stroke:#181818;stroke-width:0.5;"/><path d="M77.76,124.23 L77.76,151.23 M64.76,132.23 L90.76,132.23 M77.76,151.23 L64.76,166.23 M77.76,151.23 L90.76,166.23" fill="none" style="stroke:#181818;stroke-width:0.5;"/><text fill="#000000" font-family="sans-serif" font-size="14" lengthAdjust="spacing" textLength="143.5" x="6.01" y="180.7251">Universit&#224; Ospitante</text></g><!--entity UdO--><g class="entity" data-entity="UdO" data-source-line="5" data-uid="ent0004" id="entity_UdO"><ellipse cx="77.7603" cy="590.23" fill="#F1F1F1" rx="8" ry="8" style="stroke:#181818;stroke-width:0.5;"/><path d="M77.7603,598.23 L77.7603,625.23 M64.7603,606.23 L90.7603,606.23 M77.7603,625.23 L64.7603,640.23 M77.7603,625.23 L90.7603,640.23" fill="none" style="stroke:#181818;stroke-width:0.5;"/><text fill="#000000" font-family="sans-serif" font-size="14" lengthAdjust="spacing" textLength="143.5205" x="6" y="654.7251">Universit&#224; di Origine</text></g><!--entity CA--><g class="entity" data-entity="CA" data-source-line="6" data-uid="ent0005" id="entity_CA"><ellipse cx="636.4112" cy="439.23" fill="#F1F1F1" rx="8" ry="8" style="stroke:#181818;stroke-width:0.5;"/><path d="M636.4112,447.23 L636.4112,474.23 M623.4112,455.23 L649.4112,455.23 M636.4112,474.23 L623.4112,489.23 M636.4112,474.23 L649.4112,489.23" fill="none" style="stroke:#181818;stroke-width:0.5;"/><text fill="#000000" font-family="sans-serif" font-size="14" lengthAdjust="spacing" textLength="164.8623" x="553.98" y="503.7251">Ente di Accreditamento</text></g><!--entity req--><g class="entity" data-entity="req" data-source-line="7" data-uid="ent0006" id="entity_req"><ellipse cx="351.7494" cy="214.8699" fill="#F1F1F1" rx="91.0494" ry="20.6099" style="stroke:#181818;stroke-width:0.5;"/><text fill="#000000" font-family="sans-serif" font-size="14" lengthAdjust="spacing" textLength="156.1123" x="273.6932" y="219.5183">Emissione credenziale</text></g><!--entity forn--><g class="entity" data-entity="forn" data-source-line="8" data-uid="ent0007" id="entity_forn"><ellipse cx="351.7509" cy="554.8682" fill="#F1F1F1" rx="103.6909" ry="23.1382" style="stroke:#181818;stroke-width:0.5;"/><text fill="#000000" font-family="sans-serif" font-size="14" lengthAdjust="spacing" textLength="184.1602" x="259.6709" y="559.5166">Presentazione credenziale</text></g><!--entity cert--><g class="entity" data-entity="cert" data-source-line="9" data-uid="ent0008" id="entity_cert"><ellipse cx="351.7519" cy="119.8704" fill="#F1F1F1" rx="102.3019" ry="22.8604" style="stroke:#181818;stroke-width:0.5;"/><text fill="#000000" font-family="sans-serif" font-size="14" lengthAdjust="spacing" textLength="181.1182" x="261.1928" y="124.5188">Certificazione credenziale</text></g><!--entity valid--><g class="entity" data-entity="valid" data-source-line="10" data-uid="ent0009" id="entity_valid"><ellipse cx="351.7514" cy="659.8663" fill="#F1F1F1" rx="141.2314" ry="30.6463" style="stroke:#181818;stroke-width:0.5;"/><text fill="#000000" font-family="sans-serif" font-size="14" lengthAdjust="spacing" textLength="264.1816" x="219.6605" y="664.5147">Validazione certificazione credenziale</text></g><!--entity subs--><g class="entity" data-entity="subs" data-source-line="11" data-uid="ent0010" id="entity_subs"><ellipse cx="351.7525" cy="293.8665" fill="#F1F1F1" rx="106.3325" ry="23.6665" style="stroke:#181818;stroke-width:0.5;"/><text fill="#000000" font-family="sans-serif" font-size="14" lengthAdjust="spacing" textLength="189.9229" x="256.791" y="298.5149">Scomposizione credenziale</text></g><!--entity revoc--><g class="entity" data-entity="revoc" data-source-line="12" data-uid="ent0011" id="entity_revoc"><ellipse cx="351.7532" cy="33.8686" fill="#F1F1F1" rx="127.3432" ry="27.8686" style="stroke:#181818;stroke-width:0.5;"/><text fill="#000000" font-family="sans-serif" font-size="14" lengthAdjust="spacing" textLength="234.958" x="234.2742" y="38.5171">Revoca certificazione credenziale</text></g><!--entity UCertif--><g class="entity" data-entity="UCertif" data-source-line="13" data-uid="ent0012" id="entity_UCertif"><ellipse cx="351.7543" cy="378.8749" fill="#F1F1F1" rx="120.2743" ry="26.4549" style="stroke:#181818;stroke-width:0.5;"/><text fill="#000000" font-family="sans-serif" font-size="14" lengthAdjust="spacing" textLength="219.9395" x="241.7846" y="383.5233">Emissione certificato universit&#224;</text></g><!--entity UArchiv--><g class="entity" data-entity="UArchiv" data-source-line="14" data-uid="ent0013" id="entity_UArchiv"><ellipse cx="351.745" cy="468.865" fill="#F1F1F1" rx="128.875" ry="28.175" style="stroke:#181818;stroke-width:0.5;"/><text fill="#000000" font-family="sans-serif" font-size="14" lengthAdjust="spacing" textLength="238.1982" x="232.6459" y="473.5134">Archiviazione certificati universit&#224;</text></g><!--entity UValid--><g class="entity" data-entity="UValid" data-source-line="15" data-uid="ent0014" id="entity_UValid"><ellipse cx="351.7459" cy="752.8652" fill="#F1F1F1" rx="124.8759" ry="27.3752" style="stroke:#181818;stroke-width:0.5;"/><text fill="#000000" font-family="sans-serif" font-size="14" lengthAdjust="spacing" textLength="229.7285" x="236.8816" y="757.5136">Validazione certificato universit&#224;</text></g><!--reverse link UValid to CA--><g class="link" data-entity-1="UValid" data-entity-2="CA" data-source-line="18" data-uid="lnk15" id="link_UValid_CA"><path d="M449.6137,732.1158 C467.0537,725.7258 478.68,719.26 492.98,707.87 C560.08,654.5 602.61,560.24 622.38,507.46" fill="none" id="UValid-backto-CA" style="stroke:#181818;stroke-width:1;"/><polygon fill="#181818" points="443.98,734.18,453.8068,734.8395,448.6748,732.4598,451.0545,727.3279,443.98,734.18" style="stroke:#181818;stroke-width:1;"/></g><!--reverse link UCertif to CA--><g class="link" data-entity-1="UCertif" data-entity-2="CA" data-source-line="19" data-uid="lnk16" id="link_UCertif_CA"><path d="M428.0552,402.375 C450.6052,409.445 470.01,415.56 492.98,422.87 C512.67,429.14 533.86,435.95 553.73,442.36" fill="none" id="UCertif-backto-CA" style="stroke:#181818;stroke-width:1;"/><polygon fill="#181818" points="422.33,400.58,429.7211,407.0893,427.101,402.0758,432.1145,399.4557,422.33,400.58" style="stroke:#181818;stroke-width:1;"/></g><!--reverse link UArchiv to CA--><g class="link" data-entity-1="UArchiv" data-entity-2="CA" data-source-line="20" data-uid="lnk17" id="link_UArchiv_CA"><path d="M486.85,468.87 C511.54,468.87 530.77,468.87 553.49,468.87" fill="none" id="UArchiv-backto-CA" style="stroke:#181818;stroke-width:1;"/><polygon fill="#181818" points="480.85,468.87,489.85,472.87,485.85,468.87,489.85,464.87,480.85,468.87" style="stroke:#181818;stroke-width:1;"/></g><!--link UO to UCertif--><g class="link" data-entity-1="UO" data-entity-2="UCertif" data-source-line="22" data-uid="lnk18" id="link_UO_UCertif"><path d="M109.54,184.22 C122.27,200.5 136.97,219.85 149.52,237.87 C178.63,279.66 170.19,303.78 210.52,334.87 C225.37,346.32 237.5986,352.843 255.5486,359.143" fill="none" id="UO-to-UCertif" style="stroke:#181818;stroke-width:1;"/><polygon fill="#181818" points="261.21,361.13,254.0425,354.3752,256.4921,359.4742,251.3932,361.9238,261.21,361.13" style="stroke:#181818;stroke-width:1;"/></g><!--link UdO to UCertif--><g class="link" data-entity-1="UdO" data-entity-2="UCertif" data-source-line="23" data-uid="lnk19" id="link_UdO_UCertif"><path d="M94.78,581.52 C115.26,537.06 154.86,464.55 210.52,422.87 C225.64,411.56 238.0638,405.0833 256.1538,398.7833" fill="none" id="UdO-to-UCertif" style="stroke:#181818;stroke-width:1;"/><polygon fill="#181818" points="261.82,396.81,252.0051,395.9925,257.0982,398.4544,254.6362,403.5474,261.82,396.81" style="stroke:#181818;stroke-width:1;"/></g><!--reverse link cert to req--><g class="link" data-entity-1="cert" data-entity-2="req" data-source-line="24" data-uid="lnk20" id="link_cert_req"><path d="M351.75,149.23 C351.75,164.7 351.75,178.81 351.75,193.79" fill="none" id="cert-backto-req" style="stroke:#181818;stroke-width:1;stroke-dasharray:7.0,7.0;"/><polygon fill="#181818" points="351.75,143.23,347.75,152.23,351.75,148.23,355.75,152.23,351.75,143.23" style="stroke:#181818;stroke-width:1;"/><text fill="#000000" font-family="sans-serif" font-size="13" lengthAdjust="spacing" textLength="47.0996" x="316.75" y="173.0669">include</text></g><!--link forn to valid--><g class="link" data-entity-1="forn" data-entity-2="valid" data-source-line="25" data-uid="lnk21" id="link_forn_valid"><path d="M351.75,578.26 C351.75,593.19 351.75,606.73 351.75,622.94" fill="none" id="forn-to-valid" style="stroke:#181818;stroke-width:1;stroke-dasharray:7.0,7.0;"/><polygon fill="#181818" points="351.75,628.94,355.75,619.94,351.75,623.94,347.75,619.94,351.75,628.94" style="stroke:#181818;stroke-width:1;"/><text fill="#000000" font-family="sans-serif" font-size="13" lengthAdjust="spacing" textLength="47.0996" x="316.75" y="608.1869">include</text></g><!--link UdO to UValid--><g class="link" data-entity-1="UdO" data-entity-2="UValid" data-source-line="26" data-uid="lnk22" id="link_UdO_UValid"><path d="M129.34,658.48 C153.06,675.3 182.28,694.24 210.52,707.87 C229.63,717.1 245.3821,723.2208 265.6621,729.7908" fill="none" id="UdO-to-UValid" style="stroke:#181818;stroke-width:1;"/><polygon fill="#181818" points="271.37,731.64,264.0409,725.061,266.6134,730.099,261.5753,732.6715,271.37,731.64" style="stroke:#181818;stroke-width:1;"/></g><!--link stud to req--><g class="link" data-entity-1="stud" data-entity-2="req" data-source-line="27" data-uid="lnk23" id="link_stud_req"><path d="M142.28,273.59 C163.89,266.83 188.21,259.37 210.52,252.87 C236.8,245.23 260.194,238.7913 285.114,232.1213" fill="none" id="stud-to-req" style="stroke:#181818;stroke-width:1;"/><polygon fill="#181818" points="290.91,230.57,281.1818,229.033,286.08,231.8628,283.2503,236.761,290.91,230.57" style="stroke:#181818;stroke-width:1;"/></g><!--link stud to subs--><g class="link" data-entity-1="stud" data-entity-2="subs" data-source-line="28" data-uid="lnk24" id="link_stud_subs"><path d="M142.19,293.87 C172.8,293.87 204.34,293.87 239.1,293.87" fill="none" id="stud-to-subs" style="stroke:#181818;stroke-width:1;"/><polygon fill="#181818" points="245.1,293.87,236.1,289.87,240.1,293.87,236.1,297.87,245.1,293.87" style="stroke:#181818;stroke-width:1;"/></g><!--link stud to forn--><g class="link" data-entity-1="stud" data-entity-2="forn" data-source-line="29" data-uid="lnk25" id="link_stud_forn"><path d="M91.53,332.36 C109.96,381.94 148.73,467.36 210.52,514.87 C226.58,527.22 240.5466,534.024 260.0666,539.924" fill="none" id="stud-to-forn" style="stroke:#181818;stroke-width:1;"/><polygon fill="#181818" points="265.81,541.66,258.3522,535.2271,261.0238,540.2134,256.0376,542.885,265.81,541.66" style="stroke:#181818;stroke-width:1;"/></g><!--link UdO to forn--><g class="link" data-entity-1="UdO" data-entity-2="forn" data-source-line="30" data-uid="lnk26" id="link_UdO_forn"><path d="M149.87,602.88 C189.85,593.33 233.7644,582.835 273.7544,573.275" fill="none" id="UdO-to-forn" style="stroke:#181818;stroke-width:1;"/><polygon fill="#181818" points="279.59,571.88,269.9066,570.0822,274.727,573.0425,271.7667,577.863,279.59,571.88" style="stroke:#181818;stroke-width:1;"/></g><!--link UdO to valid--><g class="link" data-entity-1="UdO" data-entity-2="valid" data-source-line="31" data-uid="lnk27" id="link_UdO_valid"><path d="M149.87,630.33 C175.52,634.11 199.2639,637.5967 227.8139,641.7967" fill="none" id="UdO-to-valid" style="stroke:#181818;stroke-width:1;"/><polygon fill="#181818" points="233.75,642.67,225.428,637.4027,228.8032,641.9423,224.2637,645.3175,233.75,642.67" style="stroke:#181818;stroke-width:1;"/></g><!--link UO to req--><g class="link" data-entity-1="UO" data-entity-2="req" data-source-line="33" data-uid="lnk28" id="link_UO_req"><path d="M149.87,163.91 C193.31,174.93 242.4743,187.4043 283.9343,197.9243" fill="none" id="UO-to-req" style="stroke:#181818;stroke-width:1;"/><polygon fill="#181818" points="289.75,199.4,282.0102,193.3094,284.9036,198.1703,280.0427,201.0636,289.75,199.4" style="stroke:#181818;stroke-width:1;"/></g><!--link UO to cert--><g class="link" data-entity-1="UO" data-entity-2="cert" data-source-line="34" data-uid="lnk29" id="link_UO_cert"><path d="M149.87,139.08 C182.61,135.95 215.9271,132.7597 251.0471,129.4097" fill="none" id="UO-to-cert" style="stroke:#181818;stroke-width:1;"/><polygon fill="#181818" points="257.02,128.84,247.6808,125.7127,252.0426,129.3148,248.4405,133.6765,257.02,128.84" style="stroke:#181818;stroke-width:1;"/></g><!--link UO to revoc--><g class="link" data-entity-1="UO" data-entity-2="revoc" data-source-line="35" data-uid="lnk30" id="link_UO_revoc"><path d="M149.67,107.96 C169.13,98.21 190.41,88.16 210.52,79.87 C231.13,71.39 248.2267,65.2133 269.3467,58.3133" fill="none" id="UO-to-revoc" style="stroke:#181818;stroke-width:1;"/><polygon fill="#181818" points="275.05,56.45,265.2528,55.4427,270.2972,58.0028,267.7372,63.0472,275.05,56.45" style="stroke:#181818;stroke-width:1;"/></g><!--SRC=[XL9BRi8m4DtFAMRfBi81B8GK8TQfYjAzwvWoKk9Gsyc2q_GklLZ7DY61qdRdcVVcv_TQSmWOUdJqVWpOa3CwK6y1v3uCZR71uCuftmrUelBeEGcojZGQvobyVMBbJnGKyn9ULxTeGrXnQx8Nk65y5vioK6hjJCF57O_f4xujGUmwyfvNC1XXOy-aMlCKKMS-G3mxuvclpWyfXzvP45lZ0Xr8_qBI38DuLIqr4-FlWZ5IGUnrtvrwJuz9VdZp85xCs6lrNqCNMJUdJdoMOfZ_Bv7hV0w8qkaZZNI_Sw2V9Pdwov6FPYGY0EG7hei2vRQKS1b-JI1SUiyPPBFKbSIYs5ntbQpqRIPEn_KgYYYHh6xPNH3bmjKcVp3AARsepdl9wBkSYIPOXEdN5t4om5n_5sOXvtLJiob8jbX0BD4t]--></g></svg>