<svg xmlns="http://www.w3.org/2000/svg" xmlns:xlink="http://www.w3.org/1999/xlink" contentStyleType="text/css" data-diagram-type="DESCRIPTION" height="793px" preserveAspectRatio="none" style="width:725px;height:793px;background:#FFFFFF;" version="1.1" viewBox="0 0 725 793" width="725px" zoomAndPan="magnify"><defs/><g><!--entity stud--><g class="entity" data-entity="stud" data-source-line="3" data-uid="ent0002" id="entity_stud"><ellipse cx="77.7571" cy="264.22" fill="#F1F1F1" rx="8" ry="8" style="stroke:#181818;stroke-width:0.5;"/><path d="M77.7571,272.22 L77.7571,299.22 M64.7571,280.22 L90.7571,280.22 M77.7571,299.22 L64.7571,314.22 M77.7571,299.22 L90.7571,314.22" fill="none" style="stroke:#181818;stroke-width:0.5;"/><text fill="#000000" font-family="sans-serif" font-size="14" lengthAdjust="spacing" textLength="128.4541" x="13.53" y="328.7151">Studente Erasmus</text></g><!--entity UO--><g class="entity" data-entity="UO" data-source-line="4" data-uid="ent0003" id="entity_UO"><ellipse cx="77.76" cy="116.22" fill="#F1F1F1" rx="8" ry="8" style="stroke:#181818;stroke-width:0.5;"/><path d="M77.76,124.22 L77.76,151.22 M64.76,132.22 L90.76,132.22 M77.76,151.22 L64.76,166.22 M77.76,151.22 L90.76,166.22" fill="none" style="stroke:#181818;stroke-width:0.5;"/><text fill="#000000" font-family="sans-serif" font-size="14" lengthAdjust="spacing" textLength="143.5" x="6.01" y="180.7151">Universit&#224; Ospitante</text></g><!--entity UdO--><g class="entity" data-entity="UdO" data-source-line="5" data-uid="ent0004" id="entity_UdO"><ellipse cx="77.7603" cy="594.22" fill="#F1F1F1" rx="8" ry="8" style="stroke:#181818;stroke-width:0.5;"/><path d="M77.7603,602.22 L77.7603,629.22 M64.7603,610.22 L90.7603,610.22 M77.7603,629.22 L64.7603,644.22 M77.7603,629.22 L90.7603,644.22" fill="none" style="stroke:#181818;stroke-width:0.5;"/><text fill="#000000" font-family="sans-serif" font-size="14" lengthAdjust="spacing" textLength="143.5205" x="6" y="658.7151">Universit&#224; di Origine</text></g><!--entity CA--><g class="entity" data-entity="CA" data-source-line="6" data-uid="ent0005" id="entity_CA"><ellipse cx="636.4112" cy="442.22" fill="#F1F1F1" rx="8" ry="8" style="stroke:#181818;stroke-width:0.5;"/><path d="M636.4112,450.22 L636.4112,477.22 M623.4112,458.22 L649.4112,458.22 M636.4112,477.22 L623.4112,492.22 M636.4112,477.22 L649.4112,492.22" fill="none" style="stroke:#181818;stroke-width:0.5;"/><text fill="#000000" font-family="sans-serif" font-size="14" lengthAdjust="spacing" textLength="164.8623" x="553.98" y="506.7151">Ente di Accreditamento</text></g><!--entity req--><g class="entity" data-entity="req" data-source-line="7" data-uid="ent0006" id="entity_req"><ellipse cx="351.7494" cy="214.8699" fill="#F1F1F1" rx="91.0494" ry="20.6099" style="stroke:#181818;stroke-width:0.5;"/><text fill="#000000" font-family="sans-serif" font-size="14" lengthAdjust="spacing" textLength="156.1123" x="273.6932" y="219.5183">Emissione credenziale</text></g><!--entity forn--><g class="entity" data-entity="forn" data-source-line="8" data-uid="ent0007" id="entity_forn"><ellipse cx="351.7509" cy="558.8682" fill="#F1F1F1" rx="103.6909" ry="23.1382" style="stroke:#181818;stroke-width:0.5;"/><text fill="#000000" font-family="sans-serif" font-size="14" lengthAdjust="spacing" textLength="184.1602" x="259.6709" y="563.5166">Presentazione credenziale</text></g><!--entity cert--><g class="entity" data-entity="cert" data-source-line="9" data-uid="ent0008" id="entity_cert"><ellipse cx="351.7519" cy="119.8704" fill="#F1F1F1" rx="102.3019" ry="22.8604" style="stroke:#181818;stroke-width:0.5;"/><text fill="#000000" font-family="sans-serif" font-size="14" lengthAdjust="spacing" textLength="181.1182" x="261.1928" y="124.5188">Certificazione credenziale</text></g><!--entity valid--><g class="entity" data-entity="valid" data-source-line="10" data-uid="ent0009" id="entity_valid"><ellipse cx="351.7514" cy="663.8663" fill="#F1F1F1" rx="141.2314" ry="30.6463" style="stroke:#181818;stroke-width:0.5;"/><text fill="#000000" font-family="sans-serif" font-size="14" lengthAdjust="spacing" textLength="264.1816" x="219.6605" y="668.5147">Validazione certificazione credenziale</text></g><!--entity subs--><g class="entity" data-entity="subs" data-source-line="11" data-uid="ent0010" id="entity_subs"><ellipse cx="351.7525" cy="293.8665" fill="#F1F1F1" rx="106.3325" ry="23.6665" style="stroke:#181818;stroke-width:0.5;"/><text fill="#000000" font-family="sans-serif" font-size="14" lengthAdjust="spacing" textLength="189.9229" x="256.791" y="298.5149">Scomposizione credenziale</text></g><!--entity revoc--><g class="entity" data-entity="revoc" data-source-line="12" data-uid="ent0011" id="entity_revoc"><ellipse cx="351.7532" cy="33.8686" fill="#F1F1F1" rx="127.3432" ry="27.8686" style="stroke:#181818;stroke-width:0.5;"/><text fill="#000000" font-family="sans-serif" font-size="14" lengthAdjust="spacing" textLength="234.958" x="234.2742" y="38.5171">Revoca certificazione credenziale</text></g><!--entity UCertif--><g class="entity" data-entity="UCertif" data-source-line="13" data-uid="ent0012" id="entity_UCertif"><ellipse cx="351.7488" cy="379.8718" fill="#F1F1F1" rx="126.2588" ry="27.6518" style="stroke:#181818;stroke-width:0.5;"/><text fill="#000000" font-family="sans-serif" font-size="14" lengthAdjust="spacing" textLength="232.6611" x="235.4182" y="384.5202">Emissione certificato universiario</text></g><!--entity UArchiv--><g class="entity" data-entity="UArchiv" data-source-line="14" data-uid="ent0013" id="entity_UArchiv"><ellipse cx="351.7475" cy="471.8695" fill="#F1F1F1" rx="133.4475" ry="29.0895" style="stroke:#181818;stroke-width:0.5;"/><text fill="#000000" font-family="sans-serif" font-size="14" lengthAdjust="spacing" textLength="247.8438" x="227.8257" y="476.5179">Archiviazione certificati universitari</text></g><!--entity UValid--><g class="entity" data-entity="UValid" data-source-line="15" data-uid="ent0014" id="entity_UValid"><ellipse cx="351.753" cy="758.8686" fill="#F1F1F1" rx="133.493" ry="29.0986" style="stroke:#181818;stroke-width:0.5;"/><text fill="#000000" font-family="sans-serif" font-size="14" lengthAdjust="spacing" textLength="247.9395" x="227.7833" y="763.517">Validazione certificato universitario</text></g><!--reverse link UValid to CA--><g class="link" data-entity-1="UValid" data-entity-2="CA" data-source-line="18" data-uid="lnk15" id="link_UValid_CA"><path d="M451.7976,735.7639 C468.4876,729.2339 479.3,722.92 492.98,711.87 C559.89,657.84 602.49,563.36 622.32,510.49" fill="none" id="UValid-backto-CA" style="stroke:#181818;stroke-width:1;"/><polygon fill="#181818" points="446.21,737.95,456.0488,738.3958,450.8663,736.1282,453.1339,730.9457,446.21,737.95" style="stroke:#181818;stroke-width:1;"/></g><!--reverse link UCertif to CA--><g class="link" data-entity-1="UCertif" data-entity-2="CA" data-source-line="19" data-uid="lnk16" id="link_UCertif_CA"><path d="M430.2035,404.6018 C452.1935,411.6518 470.74,417.63 492.98,424.87 C512.67,431.28 533.86,438.24 553.73,444.79" fill="none" id="UCertif-backto-CA" style="stroke:#181818;stroke-width:1;"/><polygon fill="#181818" points="424.49,402.77,431.8391,409.3267,429.2513,404.2965,434.2815,401.7086,424.49,402.77" style="stroke:#181818;stroke-width:1;"/></g><!--reverse link UArchiv to CA--><g class="link" data-entity-1="UArchiv" data-entity-2="CA" data-source-line="20" data-uid="lnk17" id="link_UArchiv_CA"><path d="M491.39,471.87 C514.63,471.87 532.18,471.87 553.52,471.87" fill="none" id="UArchiv-backto-CA" style="stroke:#181818;stroke-width:1;"/><polygon fill="#181818" points="485.39,471.87,494.39,475.87,490.39,471.87,494.39,467.87,485.39,471.87" style="stroke:#181818;stroke-width:1;"/></g><!--link UO to UCertif--><g class="link" data-entity-1="UO" data-entity-2="UCertif" data-source-line="22" data-uid="lnk18" id="link_UO_UCertif"><path d="M109.54,184.21 C122.27,200.5 136.97,219.85 149.52,237.87 C178.63,279.66 170.29,303.65 210.52,334.87 C224.86,346 236.4063,352.3557 253.7363,358.7057" fill="none" id="UO-to-UCertif" style="stroke:#181818;stroke-width:1;"/><polygon fill="#181818" points="259.37,360.77,252.2956,353.9178,254.6752,359.0498,249.5432,361.4294,259.37,360.77" style="stroke:#181818;stroke-width:1;"/></g><!--link UdO to UCertif--><g class="link" data-entity-1="UdO" data-entity-2="UCertif" data-source-line="23" data-uid="lnk19" id="link_UdO_UCertif"><path d="M94.55,585.59 C114.92,540.77 154.53,467.28 210.52,424.87 C225.09,413.83 236.831,407.4997 254.301,401.1497" fill="none" id="UdO-to-UCertif" style="stroke:#181818;stroke-width:1;"/><polygon fill="#181818" points="259.94,399.1,250.115,398.4152,255.2408,400.8081,252.8479,405.9339,259.94,399.1" style="stroke:#181818;stroke-width:1;"/></g><!--reverse link cert to req--><g class="link" data-entity-1="cert" data-entity-2="req" data-source-line="24" data-uid="lnk20" id="link_cert_req"><path d="M351.75,149.23 C351.75,164.69 351.75,178.81 351.75,193.79" fill="none" id="cert-backto-req" style="stroke:#181818;stroke-width:1;stroke-dasharray:7.0,7.0;"/><polygon fill="#181818" points="351.75,143.23,347.75,152.23,351.75,148.23,355.75,152.23,351.75,143.23" style="stroke:#181818;stroke-width:1;"/><text fill="#000000" font-family="sans-serif" font-size="13" lengthAdjust="spacing" textLength="47.0996" x="316.75" y="173.0669">include</text></g><!--link forn to valid--><g class="link" data-entity-1="forn" data-entity-2="valid" data-source-line="25" data-uid="lnk21" id="link_forn_valid"><path d="M351.75,582.26 C351.75,597.19 351.75,610.72 351.75,626.94" fill="none" id="forn-to-valid" style="stroke:#181818;stroke-width:1;stroke-dasharray:7.0,7.0;"/><polygon fill="#181818" points="351.75,632.94,355.75,623.94,351.75,627.94,347.75,623.94,351.75,632.94" style="stroke:#181818;stroke-width:1;"/><text fill="#000000" font-family="sans-serif" font-size="13" lengthAdjust="spacing" textLength="47.0996" x="316.75" y="612.1869">include</text></g><!--link UdO to UValid--><g class="link" data-entity-1="UdO" data-entity-2="UValid" data-source-line="26" data-uid="lnk22" id="link_UdO_UValid"><path d="M129.42,662.31 C153.16,679.1 182.37,698.06 210.52,711.87 C228.96,720.92 243.8919,726.961 263.5119,733.661" fill="none" id="UdO-to-UValid" style="stroke:#181818;stroke-width:1;"/><polygon fill="#181818" points="269.19,735.6,261.9656,728.9061,264.4583,733.9842,259.3803,736.4769,269.19,735.6" style="stroke:#181818;stroke-width:1;"/></g><!--link stud to req--><g class="link" data-entity-1="stud" data-entity-2="req" data-source-line="27" data-uid="lnk23" id="link_stud_req"><path d="M142.28,273.58 C163.89,266.82 188.21,259.36 210.52,252.87 C236.8,245.23 260.194,238.7813 285.114,232.1113" fill="none" id="stud-to-req" style="stroke:#181818;stroke-width:1;"/><polygon fill="#181818" points="290.91,230.56,281.1818,229.023,286.08,231.8528,283.2503,236.751,290.91,230.56" style="stroke:#181818;stroke-width:1;"/></g><!--link stud to subs--><g class="link" data-entity-1="stud" data-entity-2="subs" data-source-line="28" data-uid="lnk24" id="link_stud_subs"><path d="M142.19,293.87 C172.8,293.87 204.34,293.87 239.1,293.87" fill="none" id="stud-to-subs" style="stroke:#181818;stroke-width:1;"/><polygon fill="#181818" points="245.1,293.87,236.1,289.87,240.1,293.87,236.1,297.87,245.1,293.87" style="stroke:#181818;stroke-width:1;"/></g><!--link stud to forn--><g class="link" data-entity-1="stud" data-entity-2="forn" data-source-line="29" data-uid="lnk25" id="link_stud_forn"><path d="M91.03,332.19 C109.11,382.52 147.73,470.2 210.52,518.87 C226.53,531.28 240.4766,538.104 259.9966,544.004" fill="none" id="stud-to-forn" style="stroke:#181818;stroke-width:1;"/><polygon fill="#181818" points="265.74,545.74,258.2822,539.3071,260.9538,544.2934,255.9676,546.965,265.74,545.74" style="stroke:#181818;stroke-width:1;"/></g><!--link UdO to forn--><g class="link" data-entity-1="UdO" data-entity-2="forn" data-source-line="30" data-uid="lnk26" id="link_UdO_forn"><path d="M149.87,606.88 C189.85,597.32 233.7641,586.8237 273.7541,577.2737" fill="none" id="UdO-to-forn" style="stroke:#181818;stroke-width:1;"/><polygon fill="#181818" points="279.59,575.88,269.907,574.0799,274.7268,577.0414,271.7653,581.8611,279.59,575.88" style="stroke:#181818;stroke-width:1;"/></g><!--link UdO to valid--><g class="link" data-entity-1="UdO" data-entity-2="valid" data-source-line="31" data-uid="lnk27" id="link_UdO_valid"><path d="M149.87,634.33 C175.52,638.1 199.2636,641.5988 227.8136,645.7888" fill="none" id="UdO-to-valid" style="stroke:#181818;stroke-width:1;"/><polygon fill="#181818" points="233.75,646.66,225.4262,641.3956,228.803,645.934,224.2646,649.3108,233.75,646.66" style="stroke:#181818;stroke-width:1;"/></g><!--link UO to req--><g class="link" data-entity-1="UO" data-entity-2="req" data-source-line="33" data-uid="lnk28" id="link_UO_req"><path d="M149.87,163.91 C193.31,174.93 242.4743,187.4043 283.9343,197.9243" fill="none" id="UO-to-req" style="stroke:#181818;stroke-width:1;"/><polygon fill="#181818" points="289.75,199.4,282.0102,193.3094,284.9036,198.1703,280.0427,201.0636,289.75,199.4" style="stroke:#181818;stroke-width:1;"/></g><!--link UO to cert--><g class="link" data-entity-1="UO" data-entity-2="cert" data-source-line="34" data-uid="lnk29" id="link_UO_cert"><path d="M149.87,139.07 C182.61,135.94 215.9273,132.7614 251.0473,129.4014" fill="none" id="UO-to-cert" style="stroke:#181818;stroke-width:1;"/><polygon fill="#181818" points="257.02,128.83,247.68,125.7053,252.0427,129.3062,248.4419,133.669,257.02,128.83" style="stroke:#181818;stroke-width:1;"/></g><!--link UO to revoc--><g class="link" data-entity-1="UO" data-entity-2="revoc" data-source-line="35" data-uid="lnk30" id="link_UO_revoc"><path d="M149.67,107.95 C169.13,98.21 190.41,88.15 210.52,79.87 C231.13,71.38 248.2267,65.2133 269.3467,58.3133" fill="none" id="UO-to-revoc" style="stroke:#181818;stroke-width:1;"/><polygon fill="#181818" points="275.05,56.45,265.2528,55.4427,270.2972,58.0028,267.7372,63.0472,275.05,56.45" style="stroke:#181818;stroke-width:1;"/></g><!--SRC=[XL8xRiCm3Drv2exku1n0208OGMON3TnTbPM6W6sbakmXf-bTUh5Iady9adOJ-TxZHu-DFddq1YrzdZtMPBNoP3e0SVHzhJklyM2bQtidK3fqd0HHTJHewyZ_V6FfBkGbyo9UbRTeJLXoQUf6k6Ry48eoK2XbTStYbjkOYEyBo0ujESSZQ0omxgua6_qIKAk_87krsZ5VNXzIJiPsaEsrzNGYzOIa68RiNJPKJuo_1KEWGdPKfhqOHuz9hlzmaBtfmIZvNq4RM3UhJdoseX__JreoaLsbVI0hh3hJGFT3UverdaL9axXFrbnryKkRI0M0zC1jdgFO5mB6_dC2OQo-P90FfYe5vlbk7bUmsxUPq1-tcs2aGEfKmnS6mJBSxD8devZIAtMQIuJRIvbm2Aim_lmgZaUmwE_2PEOoRYms1V4qLX3Rz0i0]--></g></svg>