<svg xmlns="http://www.w3.org/2000/svg" xmlns:xlink="http://www.w3.org/1999/xlink" contentStyleType="text/css" data-diagram-type="DESCRIPTION" height="212px" preserveAspectRatio="none" style="width:629px;height:212px;background:#FFFFFF;" version="1.1" viewBox="0 0 629 212" width="629px" zoomAndPan="magnify"><defs/><g><!--entity stud--><g class="entity" data-entity="stud" data-source-line="1" data-uid="ent0002" id="entity_stud"><ellipse cx="308.2271" cy="14" fill="#F1F1F1" rx="8" ry="8" style="stroke:#181818;stroke-width:0.5;"/><path d="M308.2271,22 L308.2271,49 M295.2271,30 L321.2271,30 M308.2271,49 L295.2271,64 M308.2271,49 L321.2271,64" fill="none" style="stroke:#181818;stroke-width:0.5;"/><text fill="#000000" font-family="sans-serif" font-size="14" lengthAdjust="spacing" textLength="128.4541" x="244" y="78.4951">Studente Erasmus</text></g><!--entity UO--><g class="entity" data-entity="UO" data-source-line="2" data-uid="ent0003" id="entity_UO"><ellipse cx="137.22" cy="14" fill="#F1F1F1" rx="8" ry="8" style="stroke:#181818;stroke-width:0.5;"/><path d="M137.22,22 L137.22,49 M124.22,30 L150.22,30 M137.22,49 L124.22,64 M137.22,49 L150.22,64" fill="none" style="stroke:#181818;stroke-width:0.5;"/><text fill="#000000" font-family="sans-serif" font-size="14" lengthAdjust="spacing" textLength="143.5" x="65.47" y="78.4951">Universit&#224; Ospitante</text></g><!--entity UdO--><g class="entity" data-entity="UdO" data-source-line="3" data-uid="ent0004" id="entity_UdO"><ellipse cx="479.2203" cy="14" fill="#F1F1F1" rx="8" ry="8" style="stroke:#181818;stroke-width:0.5;"/><path d="M479.2203,22 L479.2203,49 M466.2203,30 L492.2203,30 M479.2203,49 L466.2203,64 M479.2203,49 L492.2203,64" fill="none" style="stroke:#181818;stroke-width:0.5;"/><text fill="#000000" font-family="sans-serif" font-size="14" lengthAdjust="spacing" textLength="143.5205" x="407.46" y="78.4951">Universit&#224; di Origine</text></g><!--entity req--><g class="entity" data-entity="req" data-source-line="5" data-uid="ent0005" id="entity_req"><ellipse cx="146.2225" cy="174.0245" fill="#F1F1F1" rx="140.2225" ry="30.4445" style="stroke:#181818;stroke-width:0.5;"/><text fill="#000000" font-family="sans-serif" font-size="14" lengthAdjust="spacing" textLength="262.0693" x="15.1878" y="178.6729">Ottenimento credenziale accademica</text></g><!--entity forn--><g class="entity" data-entity="forn" data-source-line="6" data-uid="ent0006" id="entity_forn"><ellipse cx="474.2226" cy="174.0185" fill="#F1F1F1" rx="149.1426" ry="32.2285" style="stroke:#181818;stroke-width:0.5;"/><text fill="#000000" font-family="sans-serif" font-size="14" lengthAdjust="spacing" textLength="280.6973" x="333.874" y="178.667">Comunicazione credenziale accademica</text></g><!--link stud to req--><g class="link" data-entity-1="stud" data-entity-2="req" data-source-line="7" data-uid="lnk7" id="link_stud_req"><path d="M260.93,82.12 C235.9,101.96 210.3528,122.2039 187.1928,140.5539" fill="none" id="stud-to-req" style="stroke:#181818;stroke-width:1;"/><polygon fill="#181818" points="182.49,144.28,192.0282,141.8261,186.409,141.1749,187.0601,135.5557,182.49,144.28" style="stroke:#181818;stroke-width:1;"/></g><!--link UO to req--><g class="link" data-entity-1="UO" data-entity-2="req" data-source-line="8" data-uid="lnk8" id="link_UO_req"><path d="M139.85,82.12 C141.22,101.66 142.4498,119.2347 143.7298,137.4647" fill="none" id="UO-to-req" style="stroke:#181818;stroke-width:1;"/><polygon fill="#181818" points="144.15,143.45,147.5098,134.1919,143.7998,138.4623,139.5295,134.7523,144.15,143.45" style="stroke:#181818;stroke-width:1;"/></g><!--link stud to forn--><g class="link" data-entity-1="stud" data-entity-2="forn" data-source-line="10" data-uid="lnk9" id="link_stud_forn"><path d="M356.68,82.12 C381.56,101.36 406.7445,120.8284 430.1645,138.9484" fill="none" id="stud-to-forn" style="stroke:#181818;stroke-width:1;"/><polygon fill="#181818" points="434.91,142.62,430.2395,133.949,430.9554,139.5604,425.3441,140.2763,434.91,142.62" style="stroke:#181818;stroke-width:1;"/></g><!--link UdO to forn--><g class="link" data-entity-1="UdO" data-entity-2="forn" data-source-line="11" data-uid="lnk10" id="link_UdO_forn"><path d="M477.76,82.12 C477.03,100.92 476.3809,117.4444 475.6909,135.3644" fill="none" id="UdO-to-forn" style="stroke:#181818;stroke-width:1;"/><polygon fill="#181818" points="475.46,141.36,479.8033,132.5206,475.6524,136.3637,471.8092,132.2128,475.46,141.36" style="stroke:#181818;stroke-width:1;"/></g><!--SRC=[VOun3i8m34NtdC9Z6Ng132o8EGFA0Qp484l4WSHXw6bw5ov6Mf0A2wF_UxQ_FMcB94fmB5XJgnQmGksXiLxuGQMoFcTmzSQAtLkvTxyqChZ25vOFZiwOmQcISEh7CuH2_Sl4U2N0431Iue2xHIvqDyCXfoOzcJWB_RFFkOYnIpyBuxXVjwrts_0Dtt9liuql]--></g></svg>