<svg xmlns="http://www.w3.org/2000/svg" xmlns:xlink="http://www.w3.org/1999/xlink" contentStyleType="text/css" data-diagram-type="DESCRIPTION" height="517px" preserveAspectRatio="none" style="width:725px;height:517px;background:#FFFFFF;" version="1.1" viewBox="0 0 725 517" width="725px" zoomAndPan="magnify"><defs/><g><!--entity stud--><g class="entity" data-entity="stud" data-source-line="3" data-uid="ent0002" id="entity_stud"><ellipse cx="77.7571" cy="194" fill="#F1F1F1" rx="8" ry="8" style="stroke:#181818;stroke-width:0.5;"/><path d="M77.7571,202 L77.7571,229 M64.7571,210 L90.7571,210 M77.7571,229 L64.7571,244 M77.7571,229 L90.7571,244" fill="none" style="stroke:#181818;stroke-width:0.5;"/><text fill="#000000" font-family="sans-serif" font-size="14" lengthAdjust="spacing" textLength="128.4541" x="13.53" y="258.4951">Studente Erasmus</text></g><!--entity UO--><g class="entity" data-entity="UO" data-source-line="4" data-uid="ent0003" id="entity_UO"><ellipse cx="77.76" cy="368" fill="#F1F1F1" rx="8" ry="8" style="stroke:#181818;stroke-width:0.5;"/><path d="M77.76,376 L77.76,403 M64.76,384 L90.76,384 M77.76,403 L64.76,418 M77.76,403 L90.76,418" fill="none" style="stroke:#181818;stroke-width:0.5;"/><text fill="#000000" font-family="sans-serif" font-size="14" lengthAdjust="spacing" textLength="143.5" x="6.01" y="432.4951">Universit&#224; Ospitante</text></g><!--entity UdO--><g class="entity" data-entity="UdO" data-source-line="5" data-uid="ent0004" id="entity_UdO"><ellipse cx="77.7603" cy="77" fill="#F1F1F1" rx="8" ry="8" style="stroke:#181818;stroke-width:0.5;"/><path d="M77.7603,85 L77.7603,112 M64.7603,93 L90.7603,93 M77.7603,112 L64.7603,127 M77.7603,112 L90.7603,127" fill="none" style="stroke:#181818;stroke-width:0.5;"/><text fill="#000000" font-family="sans-serif" font-size="14" lengthAdjust="spacing" textLength="143.5205" x="6" y="141.4951">Universit&#224; di Origine</text></g><!--entity CA--><g class="entity" data-entity="CA" data-source-line="6" data-uid="ent0005" id="entity_CA"><ellipse cx="636.4112" cy="368" fill="#F1F1F1" rx="8" ry="8" style="stroke:#181818;stroke-width:0.5;"/><path d="M636.4112,376 L636.4112,403 M623.4112,384 L649.4112,384 M636.4112,403 L623.4112,418 M636.4112,403 L649.4112,418" fill="none" style="stroke:#181818;stroke-width:0.5;"/><text fill="#000000" font-family="sans-serif" font-size="14" lengthAdjust="spacing" textLength="164.8623" x="553.98" y="432.4951">Ente di Accreditamento</text></g><!--entity req--><g class="entity" data-entity="req" data-source-line="7" data-uid="ent0006" id="entity_req"><ellipse cx="351.7494" cy="302.6499" fill="#F1F1F1" rx="91.0494" ry="20.6099" style="stroke:#181818;stroke-width:0.5;"/><text fill="#000000" font-family="sans-serif" font-size="14" lengthAdjust="spacing" textLength="156.1123" x="273.6932" y="307.2983">Emissione credenziale</text></g><!--entity forn--><g class="entity" data-entity="forn" data-source-line="8" data-uid="ent0007" id="entity_forn"><ellipse cx="351.7509" cy="141.6482" fill="#F1F1F1" rx="103.6909" ry="23.1382" style="stroke:#181818;stroke-width:0.5;"/><text fill="#000000" font-family="sans-serif" font-size="14" lengthAdjust="spacing" textLength="184.1602" x="259.6709" y="146.2966">Presentazione credenziale</text></g><!--entity cert--><g class="entity" data-entity="cert" data-source-line="9" data-uid="ent0008" id="entity_cert"><ellipse cx="351.7519" cy="397.6504" fill="#F1F1F1" rx="102.3019" ry="22.8604" style="stroke:#181818;stroke-width:0.5;"/><text fill="#000000" font-family="sans-serif" font-size="14" lengthAdjust="spacing" textLength="181.1182" x="261.1928" y="402.2988">Certificazione credenziale</text></g><!--entity valid--><g class="entity" data-entity="valid" data-source-line="10" data-uid="ent0009" id="entity_valid"><ellipse cx="351.7514" cy="36.6463" fill="#F1F1F1" rx="141.2314" ry="30.6463" style="stroke:#181818;stroke-width:0.5;"/><text fill="#000000" font-family="sans-serif" font-size="14" lengthAdjust="spacing" textLength="264.1816" x="219.6605" y="41.2947">Validazione certificazione credenziale</text></g><!--entity subs--><g class="entity" data-entity="subs" data-source-line="11" data-uid="ent0010" id="entity_subs"><ellipse cx="351.7525" cy="223.6465" fill="#F1F1F1" rx="106.3325" ry="23.6665" style="stroke:#181818;stroke-width:0.5;"/><text fill="#000000" font-family="sans-serif" font-size="14" lengthAdjust="spacing" textLength="189.9229" x="256.791" y="228.2949">Scomposizione credenziale</text></g><!--entity revoc--><g class="entity" data-entity="revoc" data-source-line="12" data-uid="ent0011" id="entity_revoc"><ellipse cx="351.7532" cy="483.6486" fill="#F1F1F1" rx="127.3432" ry="27.8686" style="stroke:#181818;stroke-width:0.5;"/><text fill="#000000" font-family="sans-serif" font-size="14" lengthAdjust="spacing" textLength="234.958" x="234.2742" y="488.2971">Revoca certificazione credenziale</text></g><!--link req to cert--><g class="link" data-entity-1="req" data-entity-2="cert" data-source-line="14" data-uid="lnk12" id="link_req_cert"><path d="M351.75,323.49 C351.75,338.61 351.75,353.06 351.75,368.65" fill="none" id="req-to-cert" style="stroke:#181818;stroke-width:1;stroke-dasharray:7.0,7.0;"/><polygon fill="#181818" points="351.75,374.65,355.75,365.65,351.75,369.65,347.75,365.65,351.75,374.65" style="stroke:#181818;stroke-width:1;"/><text fill="#000000" font-family="sans-serif" font-size="13" lengthAdjust="spacing" textLength="47.0996" x="316.75" y="353.5969">include</text></g><!--reverse link valid to forn--><g class="link" data-entity-1="valid" data-entity-2="forn" data-source-line="15" data-uid="lnk13" id="link_valid_forn"><path d="M351.75,73.71 C351.75,89.83 351.75,103.21 351.75,118.09" fill="none" id="valid-backto-forn" style="stroke:#181818;stroke-width:1;stroke-dasharray:7.0,7.0;"/><polygon fill="#181818" points="351.75,67.71,347.75,76.71,351.75,72.71,355.75,76.71,351.75,67.71" style="stroke:#181818;stroke-width:1;"/><text fill="#000000" font-family="sans-serif" font-size="13" lengthAdjust="spacing" textLength="47.0996" x="316.75" y="97.4769">include</text></g><!--link stud to req--><g class="link" data-entity-1="stud" data-entity-2="req" data-source-line="17" data-uid="lnk14" id="link_stud_req"><path d="M142.28,243.94 C163.89,250.7 188.21,258.16 210.52,264.65 C236.8,272.3 260.194,278.7387 285.114,285.4087" fill="none" id="stud-to-req" style="stroke:#181818;stroke-width:1;"/><polygon fill="#181818" points="290.91,286.96,283.2503,280.769,286.08,285.6672,281.1818,288.497,290.91,286.96" style="stroke:#181818;stroke-width:1;"/></g><!--link stud to subs--><g class="link" data-entity-1="stud" data-entity-2="subs" data-source-line="18" data-uid="lnk15" id="link_stud_subs"><path d="M142.19,223.65 C172.8,223.65 204.34,223.65 239.1,223.65" fill="none" id="stud-to-subs" style="stroke:#181818;stroke-width:1;"/><polygon fill="#181818" points="245.1,223.65,236.1,219.65,240.1,223.65,236.1,227.65,245.1,223.65" style="stroke:#181818;stroke-width:1;"/></g><!--link stud to forn--><g class="link" data-entity-1="stud" data-entity-2="forn" data-source-line="19" data-uid="lnk16" id="link_stud_forn"><path d="M142.36,203.62 C163.97,196.88 188.27,189.36 210.52,182.65 C235.41,175.14 257.0888,168.7459 281.0488,161.7759" fill="none" id="stud-to-forn" style="stroke:#181818;stroke-width:1;"/><polygon fill="#181818" points="286.81,160.1,277.0509,158.7731,282.009,161.4966,279.2855,166.4547,286.81,160.1" style="stroke:#181818;stroke-width:1;"/></g><!--link UdO to forn--><g class="link" data-entity-1="UdO" data-entity-2="forn" data-source-line="20" data-uid="lnk17" id="link_UdO_forn"><path d="M149.87,115.8 C183.87,120.18 218.9791,124.6939 255.0991,129.3439" fill="none" id="UdO-to-forn" style="stroke:#181818;stroke-width:1;"/><polygon fill="#181818" points="261.05,130.11,252.6344,124.9936,256.0909,129.4716,251.6129,132.9281,261.05,130.11" style="stroke:#181818;stroke-width:1;"/></g><!--link UdO to valid--><g class="link" data-entity-1="UdO" data-entity-2="valid" data-source-line="21" data-uid="lnk18" id="link_UdO_valid"><path d="M149.87,88.35 C183.32,79.74 217.7891,70.8646 253.4791,61.6846" fill="none" id="UdO-to-valid" style="stroke:#181818;stroke-width:1;"/><polygon fill="#181818" points="259.29,60.19,249.5773,58.5581,254.4476,61.4355,251.5701,66.3059,259.29,60.19" style="stroke:#181818;stroke-width:1;"/></g><!--reverse link valid to CA--><g class="link" data-entity-1="valid" data-entity-2="CA" data-source-line="22" data-uid="lnk19" id="link_valid_CA"><path d="M438.7825,64.4799 C460.0725,74.0499 476.27,84.25 492.98,100.65 C568.6,174.84 609.36,297.18 626.12,359.14" fill="none" id="valid-backto-CA" style="stroke:#181818;stroke-width:1;"/><polygon fill="#181818" points="433.31,62.02,439.8788,69.3583,437.8704,64.07,443.1588,62.0616,433.31,62.02" style="stroke:#181818;stroke-width:1;"/></g><!--reverse link cert to CA--><g class="link" data-entity-1="cert" data-entity-2="CA" data-source-line="23" data-uid="lnk20" id="link_cert_CA"><path d="M460.4,397.65 C493,397.65 522.68,397.65 553.67,397.65" fill="none" id="cert-backto-CA" style="stroke:#181818;stroke-width:1;"/><polygon fill="#181818" points="454.4,397.65,463.4,401.65,459.4,397.65,463.4,393.65,454.4,397.65" style="stroke:#181818;stroke-width:1;"/></g><!--link UO to req--><g class="link" data-entity-1="UO" data-entity-2="req" data-source-line="24" data-uid="lnk21" id="link_UO_req"><path d="M149.87,372.82 C197.24,356.27 252.6857,336.9087 294.9957,322.1287" fill="none" id="UO-to-req" style="stroke:#181818;stroke-width:1;"/><polygon fill="#181818" points="300.66,320.15,290.8444,319.3418,295.9397,321.7989,293.4826,326.8943,300.66,320.15" style="stroke:#181818;stroke-width:1;"/></g><!--link UO to cert--><g class="link" data-entity-1="UO" data-entity-2="cert" data-source-line="25" data-uid="lnk22" id="link_UO_cert"><path d="M149.87,397.65 C180.17,397.65 210.08,397.65 243.1,397.65" fill="none" id="UO-to-cert" style="stroke:#181818;stroke-width:1;"/><polygon fill="#181818" points="249.1,397.65,240.1,393.65,244.1,397.65,240.1,401.65,249.1,397.65" style="stroke:#181818;stroke-width:1;"/></g><!--link UO to revoc--><g class="link" data-entity-1="UO" data-entity-2="revoc" data-source-line="26" data-uid="lnk23" id="link_UO_revoc"><path d="M149.87,420.13 C189.22,432.58 232.3092,446.2011 271.9692,458.7411" fill="none" id="UO-to-revoc" style="stroke:#181818;stroke-width:1;"/><polygon fill="#181818" points="277.69,460.55,270.3146,454.0228,272.9226,459.0426,267.9028,461.6506,277.69,460.55" style="stroke:#181818;stroke-width:1;"/></g><!--reverse link revoc to CA--><g class="link" data-entity-1="revoc" data-entity-2="CA" data-source-line="27" data-uid="lnk24" id="link_revoc_CA"><path d="M433.1301,459.1931 C471.9701,447.3731 513.8,434.65 553.64,422.53" fill="none" id="revoc-backto-CA" style="stroke:#181818;stroke-width:1;"/><polygon fill="#181818" points="427.39,460.94,437.1647,462.1464,432.1734,459.4843,434.8356,454.493,427.39,460.94" style="stroke:#181818;stroke-width:1;"/></g><!--SRC=[XP11JiGm34NtFeMNPT4vG8H6gggkYnYLVKXSiDGcGv9sCQVXBbmC9ymCHHfW4ybvt_xsdsXCc3m6VdbDQ3cGIUmTW3ganP9BX5tGSLwYGXqnoYUemV5A8NBwUCS-7ZbfqHK-z3-fPUnbDBipjiAxF5H0OqmWAyspsFZ2smQgRkOOPGN2ZCcTM4zqbscWDwWU0aNHwzDDoUY3Wwgba7Xayul828RgIKziBug_6zOiXUfW_7pqaM-Bul8SeNgarHlzty2GLG1o4ExsHOoAdPaaSIXcUByhjtn_WyhPAwphVGbYKnRdJLr2K9BrpVBhcBDBNQDg6mLbXMkbXdvZT2bAR1kKJoZljV4J]--></g></svg>